<svg width="36" height="36" viewBox="0 0 36 36" fill="none" xmlns="http://www.w3.org/2000/svg">
<circle cx="18" cy="18" r="18" fill="#D91023"/>
<path d="M10 17.5C9.72386 17.5 9.5 17.7239 9.5 18C9.5 18.2761 9.72386 18.5 10 18.5L10 17.5ZM26 18.5C26.2761 18.5 26.5 18.2761 26.5 18C26.5 17.7239 26.2761 17.5 26 17.5L26 18.5ZM10 18.5L26 18.5L26 17.5L10 17.5L10 18.5Z" fill="white"/>
<path d="M10 17.5C9.72386 17.5 9.5 17.7239 9.5 18C9.5 18.2761 9.72386 18.5 10 18.5L10 17.5ZM26 18.5C26.2761 18.5 26.5 18.2761 26.5 18C26.5 17.7239 26.2761 17.5 26 17.5L26 18.5ZM10 18.5L26 18.5L26 17.5L10 17.5L10 18.5Z" fill="url(#paint0_linear)"/>
<path d="M10 17.5C9.72386 17.5 9.5 17.7239 9.5 18C9.5 18.2761 9.72386 18.5 10 18.5L10 17.5ZM26 18.5C26.2761 18.5 26.5 18.2761 26.5 18C26.5 17.7239 26.2761 17.5 26 17.5L26 18.5ZM10 18.5L26 18.5L26 17.5L10 17.5L10 18.5Z" fill="url(#paint1_linear)"/>
<path d="M20 12L26 18L20 24" stroke="white" stroke-linecap="round" stroke-linejoin="round"/>
<path d="M20 12L26 18L20 24" stroke="url(#paint2_linear)" stroke-linecap="round" stroke-linejoin="round"/>
<path d="M20 12L26 18L20 24" stroke="url(#paint3_linear)" stroke-linecap="round" stroke-linejoin="round"/>
<defs>
<linearGradient id="paint0_linear" x1="18" y1="18" x2="18" y2="19" gradientUnits="userSpaceOnUse">
<stop stop-color="white"/>
<stop offset="1" stop-color="white" stop-opacity="0"/>
</linearGradient>
<linearGradient id="paint1_linear" x1="18" y1="18" x2="18" y2="19" gradientUnits="userSpaceOnUse">
<stop stop-color="white"/>
<stop offset="1" stop-color="white" stop-opacity="0"/>
</linearGradient>
<linearGradient id="paint2_linear" x1="23" y1="12" x2="23" y2="24" gradientUnits="userSpaceOnUse">
<stop stop-color="white"/>
<stop offset="1" stop-color="white" stop-opacity="0"/>
</linearGradient>
<linearGradient id="paint3_linear" x1="23" y1="12" x2="23" y2="24" gradientUnits="userSpaceOnUse">
<stop stop-color="white"/>
<stop offset="1" stop-color="white" stop-opacity="0"/>
</linearGradient>
</defs>
</svg>
